<?xml version="1.0" encoding="UTF-8"?>
<svg width="215px" height="215px" viewBox="0 0 215 215" version="1.1" xmlns="http://www.w3.org/2000/svg" xmlns:xlink="http://www.w3.org/1999/xlink">
    <!-- Generator: Sketch 52.5 (67469) - http://www.bohemiancoding.com/sketch -->
    <title>pat3 copy 4</title>
    <desc>Created with Sketch.</desc>
    <defs>
        <circle id="path-1" cx="107.5" cy="107.5" r="107.5"></circle>
        <polygon id="path-3" points="0.14364559 0.835283077 45.8542735 0.835283077 45.8542735 218.728324 0.14364559 218.728324"></polygon>
    </defs>
    <g id="Page-1" stroke="none" stroke-width="1" fill="none" fill-rule="evenodd">
        <g id="Desktop-HD" transform="translate(-1014.000000, -1944.000000)">
            <g id="pat3-copy-4" transform="translate(1014.000000, 1944.000000)">
                <g id="Group-7">
                    <mask id="mask-2" fill="white">
                        <use xlink:href="#path-1"></use>
                    </mask>
                    <use id="Mask" fill="#FEE039" xlink:href="#path-1"></use>
                    <g id="Group-108" mask="url(#mask-2)">
                        <path d="M111.068126,231.635477 C107.576424,217.315193 111.856042,203.429929 115.90601,189.71918 C117.895467,182.981413 119.71237,176.229735 120.721055,169.270664 C121.550842,163.539515 118.811531,154.006991 122.546839,149.32925 C125.24428,145.952779 130.684838,143.920574 134.475973,142.108408 C140.016765,139.459079 145.830346,137.080374 151.655346,135.155659 C165.13113,130.704281 179.199438,128.852913 192.030678,122.491995 C194.228217,121.403178 192.299661,118.131669 190.109735,119.217957 C175.016248,126.699306 157.907927,128.06507 142.442685,134.551182 C134.245054,137.990883 122.747308,141.28642 118.043915,149.379834 C115.285573,154.125863 117.64171,161.514897 117.217935,166.708592 C116.550553,174.887999 113.945734,182.920712 111.632736,190.748561 C107.565005,204.518746 103.909631,218.342044 107.397525,232.64336 C107.977361,235.0208 111.647961,234.011653 111.068126,231.635477" id="Fill-1" fill="#FF8904"></path>
                        <path d="M158,133 C165.811243,136.703765 195.565108,143.269586 186.193163,157.393243 C174.912547,174.391481 161.438442,139.295273 158,133.626271" id="Fill-3" fill="#FF8904"></path>
                        <path d="M156.980942,134.438144 C165.11903,138.206121 194.692185,144.935903 182.335143,158.304085 C174.170488,167.138176 162.334648,137.309818 159.576831,132.49532 C158.371235,130.389759 155.090952,132.280007 156.299078,134.390575 C160.176467,141.157912 171.916163,172.95413 184.365554,161.556312 C191.024795,155.461203 190.337871,147.60979 183.395258,142.254506 C176.174333,136.68516 167.022936,134.957649 158.896232,131.195931 C156.693774,130.17695 154.765833,133.414155 156.980942,134.438144" id="Fill-5" fill="#FF8904"></path>
                        <path d="M151.534901,132 C147.22377,135.787255 134.29038,156.617161 148.455522,155.985951 C159.541286,155.985951 156.461907,137.680883 151.534901,132" id="Fill-7" fill="#FF8904"></path>
                        <path d="M149.377031,130.641444 C144.072254,135.463041 131.547928,155.47779 145.080162,157.775415 C160.820193,160.449865 158.546717,138.510523 152.055944,130.641444 C150.498613,128.753522 147.833594,131.453263 149.377031,133.323481 C153.628431,138.47891 156.614263,158.909685 144.298339,153.675856 C138.215528,151.088657 149.38082,135.755144 152.055944,133.323481 C153.869672,131.675817 151.180655,129.001367 149.377031,130.641444" id="Fill-9" fill="#FF8904"></path>
                        <path d="M176,126 C184.344073,124.07589 190.120739,114.076931 199.106664,111.511451 C204.241478,110.228711 217.720365,110.870081 211.301847,119.207891 C206.808885,124.980222 182.418518,126 176,126" id="Fill-11" fill="#FF8904"></path>
                        <path d="M176.33416,127.911208 C183.131013,125.85744 187.759676,120.354428 193.3496,116.209387 C196.136372,114.142686 199.12094,113.049843 202.522517,112.867487 C205.54236,112.707117 212.899844,113.603377 208.636535,118.387312 C205.076218,122.381037 195.692908,122.665564 190.931961,123.215218 C185.927864,123.792032 180.867075,124.073973 175.831482,124.101132 C173.394946,124.112772 173.393686,127.992686 175.831482,127.981047 C183.47873,127.940954 191.153693,127.302062 198.693854,125.988064 C203.771021,125.10215 213.934175,122.986304 213.999686,115.76837 C214.057639,109.301846 206.067715,108.79875 201.399996,109.048358 C190.546449,109.627759 185.131644,121.208009 175.328805,124.169677 C172.996836,124.874528 173.989592,128.619939 176.33416,127.911208" id="Fill-13" fill="#FF8904"></path>
                        <path d="M172,130.429614 C180.185185,137.196899 195.925926,143.964184 206,137.196899 C201.592593,126.738367 182.074074,128.58399 172,130.429614" id="Fill-15" fill="#FF8904"></path>
                        <path d="M170.648667,130.808931 C180.404771,138.58916 195.229853,145.032861 207.084861,137.944541 C208.020516,137.387032 208.221556,136.319304 207.766372,135.392198 C201.707371,123.067281 182.552986,125.719179 171.485699,127.689125 C169.080811,128.117211 170.102446,131.714883 172.493425,131.289285 C181.834807,129.626715 199.36191,126.842907 204.490313,137.275033 C204.717905,136.425081 204.944233,135.572641 205.171825,134.72269 C194.908696,140.856526 181.751357,134.884467 173.330457,128.169478 C171.449031,126.668685 168.74701,129.291961 170.648667,130.808931" id="Fill-17" fill="#FF8904"></path>
                        <path d="M135,37.4915578 C142.473759,35.3279944 166.282948,21.9439439 168.791039,37.2113296 C171.811862,55.5902577 141.174249,39.724547 135.387706,37.9194737" id="Fill-19" fill="#FF8904"></path>
                        <path d="M135.334902,39.1673265 C140.841273,37.4592918 146.037657,34.894728 151.563006,33.2067879 C155.032323,32.1455457 158.787587,31.3417647 162.397346,32.0814944 C166.444883,32.9141613 168.041629,38.4803449 166.501819,41.9165088 C163.114743,49.4820977 140.819763,37.6514457 135.723334,35.9597379 C133.394008,35.1873545 132.404582,38.8269755 134.713664,39.5930793 C142.56834,42.1990881 166.505615,55.7126565 170.531642,41.8298511 C172.725587,34.2617504 166.891516,28.2673023 159.706158,28.0136089 C150.801325,27.6971201 142.555687,32.9807244 134.325232,35.5339851 C131.997171,36.257388 132.991658,39.8944972 135.334902,39.1673265" id="Fill-21" fill="#FF8904"></path>
                        <path d="M130.085444,42 C129.322689,47.6766214 133.633175,71.6083041 144.366798,61.5683929 C153.110966,54.0719754 137.929246,42.8093499 130.085444,42" id="Fill-23" fill="#FF8904"></path>
                        <path d="M129.101683,41.8430306 C128.385273,48.7070634 131.332064,68.3135507 141.85378,65.7746264 C148.268501,64.2276071 150.50015,57.0576949 147.997153,51.6827783 C145.296351,45.887435 137.775949,40.9190988 131.509581,40.0228598 C129.110559,39.6792175 128.077154,43.3183004 130.497732,43.6632014 C135.451738,44.3718848 139.946734,47.5313791 143.161069,51.2157774 C144.743511,53.0309132 145.850459,55.4326323 145.25324,57.8343515 C144.746047,59.8760646 141.96029,62.2563848 139.809792,62.2563848 C136.482607,62.2563848 134.813943,55.301721 134.195167,53.0170668 C133.235305,49.4736499 132.521431,45.5223939 132.90563,41.8430306 C133.157958,39.4211712 129.351476,39.4463465 129.101683,41.8430306" id="Fill-25" fill="#FF8904"></path>
                        <path d="M136,36 C134.004205,28.4604576 133.378658,1.1272464 118.588277,6.75820389 C100.785425,13.5355763 130.802645,31.8226006 135.419782,35.8849793" id="Fill-27" fill="#FF8904"></path>
                        <path d="M136.939132,35.614525 C134.330668,24.7874699 133.271863,-3.66781051 114.75177,5.95581352 C98.8324318,14.2294021 127.551232,32.5498552 133.142082,37.3584802 C135.011696,38.9660295 137.74994,36.2736075 135.868762,34.6545848 C131.485772,30.884939 108.533861,17.0531307 115.53174,10.0620121 C123.021757,2.57753776 128.341481,13.1381553 129.970807,19.0864702 C131.54745,24.8461117 131.827571,30.8441447 133.22175,36.6305574 C133.799981,39.0297706 137.517363,38.0124634 136.939132,35.614525" id="Fill-29" fill="#FF8904"></path>
                        <path d="M131,41.8369569 C126.3117,45.4922236 102.78259,54.5225787 106.370641,40.1029325 C108.685803,28.7162151 126.347773,35.6174516 131,41.8369569" id="Fill-31" fill="#FF8904"></path>
                        <path d="M130.267092,40.4930664 C126.180565,43.4571247 114.19576,49.0373296 109.513255,45.1843015 C107.810639,43.781512 109.057802,40.2578237 109.860804,38.7473178 C111.09291,36.4357485 114.198269,36.3602232 116.459222,36.5050832 C121.321148,36.8183275 126.834259,39.6994317 129.885666,43.408838 C131.416389,45.2697317 134.062531,42.6251083 132.546865,40.7827864 C125.710056,32.4712896 104.081699,27.3789038 105.030245,43.7963694 C105.722834,55.7566046 127.07265,47.395583 132.166694,43.6997961 C134.100172,42.2970066 132.225664,39.0717051 130.267092,40.4930664" id="Fill-33" fill="#FF8904"></path>
                        <path d="M137,30 C146.504763,25.2285108 161.132183,13.8946619 158.739445,2.00093161 C147.261548,1.85096338 139.637506,19.8434017 137.437087,29.7737979" id="Fill-35" fill="#FF8904"></path>
                        <path d="M137.874949,31.7690999 C148.991859,26.0380339 162.870586,15.4268632 160.79131,1.38915548 C160.673543,0.593664365 159.722547,-0.0303738319 158.96023,0.0011432488 C145.075171,0.567190017 138.204188,18.0326954 135.527215,29.4065795 C134.968774,31.7791853 138.6322,32.7864712 139.190642,30.411344 C141.407946,20.9877369 147.184839,4.26351324 158.96023,3.78319293 C158.34987,3.32052218 157.73951,2.85659076 157.12915,2.39392001 C158.904512,14.3842782 145.186606,23.7461118 135.956493,28.5039303 C133.780977,29.6259384 135.703232,32.8898473 137.874949,31.7690999" id="Fill-37" fill="#FF8904"></path>
                        <path d="M151.530119,133.741246 C143.3624,133.741246 124.513818,124.92997 135.194681,116.74807 C139.592684,113.601185 147.132117,114.859939 150.273547,119.265577 C154.043263,124.300593 150.273547,128.706231 151.530119,135" id="Fill-39" fill="#FF8904"></path>
                        <path d="M150.661061,131.942624 C146.702468,131.847481 142.775606,130.416538 139.289151,128.62659 C136.698742,127.297131 131.516654,124.175188 133.188172,120.567384 C135.735429,115.071952 143.999101,116.376039 147.476672,119.892506 C149.714248,122.154361 149.280186,125.318167 148.870239,128.141997 C148.499636,130.690548 148.429831,133.075454 148.825817,135.618931 C149.201496,138.039356 152.869445,137.008011 152.496304,134.609151 C151.885825,130.681668 153.34539,126.894996 152.921481,122.984004 C152.559763,119.63245 150.348841,116.977339 147.663242,115.137917 C142.087707,111.318262 134.185753,112.811365 130.248737,118.068307 C127.093539,122.285023 130.501305,127.224823 134.005528,129.789865 C138.693903,133.221339 144.81265,135.607513 150.661061,135.748324 C153.118205,135.807947 153.111859,132.002246 150.661061,131.942624" id="Fill-41" fill="#FF8904"></path>
                        <path d="M162.278114,128.71357 C157.283238,121.638206 153.53708,97.1960378 169.77043,104.271402 C181.633262,109.417122 164.775553,124.211065 164.775553,130" id="Fill-43" fill="#FF8904"></path>
                        <path d="M163.913143,126.988757 C160.737053,122.37869 155.408686,103.037978 166.264634,104.926651 C180.547582,107.41102 163.485713,122.22569 162.910764,129.192209 C162.710288,131.612619 166.49411,131.592554 166.693324,129.192209 C166.932887,126.293986 169.797546,123.177551 171.326961,120.834894 C173.293892,117.821295 175.273432,114.608294 175.882424,111.0153 C177.003323,104.401183 169.882023,100.98251 164.217008,101.000067 C151.308391,101.041453 156.438804,122.781256 160.646271,128.887463 C162.016819,130.875209 165.296299,128.996569 163.913143,126.988757" id="Fill-45" fill="#FF8904"></path>
                        <path d="M107.602776,239.64336 C111.09197,225.339515 107.430219,211.52254 103.367528,197.748561 C101.03294,189.83472 98.7237276,181.929731 97.7835483,173.708592 C97.1770629,168.416258 99.7755611,161.22956 96.9562921,156.379834 C92.2541269,148.28642 80.7562801,144.990883 72.5585766,141.552447 C57.0919298,135.06507 39.9847273,133.699306 24.8911071,126.217957 C22.6998931,125.131669 20.7713202,128.403178 22.970147,129.491995 C35.0871673,135.498826 48.3575249,137.771305 61.2497807,141.509451 C71.1083406,144.368702 84.9230125,148.984477 92.4533282,156.32925 C94.9795049,158.793948 94.2867412,162.824215 93.961929,165.900977 C93.6104719,169.234452 93.8312428,172.443996 94.2118822,175.764825 C94.947785,182.194031 96.7139517,188.480338 98.4978816,194.680651 C102.644313,209.090722 107.610388,223.5577 103.932143,238.635477 C103.352302,241.011653 107.022935,242.0208 107.602776,239.64336" id="Fill-47" fill="#FF8904"></path>
                        <path d="M57,139 C49.1887566,142.703765 19.4348916,149.269586 28.8068371,163.393243 C40.0874531,180.391481 53.5615579,145.295273 57,139.626271" id="Fill-49" fill="#FF8904"></path>
                        <path d="M56.047989,137.201624 C45.1150209,142.309083 13.4340416,150.364343 29.4228142,167.820625 C41.8876098,181.43279 54.7985437,147.352152 58.693873,140.488118 C59.9252663,138.316868 56.5830971,136.370985 55.3542825,138.538372 C52.1191349,144.239512 42.4652687,171.627395 33.0989425,165.910801 C23.19364,159.867102 32.8294543,151.452543 38.9258186,148.281952 C45.0402347,145.09977 51.7761499,143.444933 58.0001665,140.537055 C60.257936,139.482337 58.2928642,136.153345 56.047989,137.201624" id="Fill-51" fill="#FF8904"></path>
                        <path d="M63.4650993,139 C67.7762296,142.787255 80.7096205,163.617161 66.544478,162.985951 C55.4587144,162.985951 58.5380932,144.680883 63.4650993,139" id="Fill-53" fill="#FF8904"></path>
                        <path d="M61.943754,140.323481 C65.0622774,143.158524 75.4661966,157.214877 69.7015387,160.675856 C67.655363,161.902436 64.1288676,161.134875 62.4957163,159.606076 C60.8322512,158.048193 60.6491058,155.23844 60.5998461,153.129228 C60.4988003,148.851372 61.8654436,143.666859 64.6227285,140.323481 C66.1662018,138.453263 63.5011211,135.753522 61.943754,137.641444 C55.45283,145.510523 53.1805646,167.449865 68.9196975,164.775415 C82.4522446,162.47779 69.9276285,142.463041 64.6227285,137.641444 C62.8190625,136.001367 60.1299835,138.675817 61.943754,140.323481" id="Fill-55" fill="#FF8904"></path>
                        <path d="M37,134 C28.792294,132.095127 24.505346,120.046168 15.666278,117.506338 C10.615382,116.236422 -2.64322,116.87138 3.6704,125.12583 C8.08993401,130.84045 30.68638,134 37,134" id="Fill-57" fill="#FF8904"></path>
                        <path d="M37.668431,132.222452 C28.4526777,129.399834 25.2588115,117.596043 15.4177035,115.494364 C10.6604507,114.477916 1.90548504,114.556888 0.271207913,120.389364 C-3.3429371,133.284754 30.2375969,135.86154 37.1633368,135.974903 C39.6141195,136.015663 39.6103218,132.194429 37.1633368,132.153669 C31.4807109,132.060686 25.8018827,131.074808 20.2496445,129.920795 C18.6862578,129.59599 -0.983299163,123.940564 5.07150139,119.990682 C11.1452904,116.030611 19.0850164,120.782952 23.2004578,125.011784 C27.3551422,129.280102 30.743957,134.09613 36.6582426,135.907395 C39.0077534,136.62706 40.0040168,132.938296 37.668431,132.222452" id="Fill-59" fill="#FF8904"></path>
                        <path d="M44,134.663993 C35.6603774,141.798904 20.2641509,152.825584 10,145.690673 C14.490566,134.663993 33.7358491,132.718108 44,134.663993" id="Fill-61" fill="#FF8904"></path>
                        <path d="M42.623449,134.201467 C34.6782979,140.55963 21.5148405,150.51808 10.8750009,144.396729 C11.1065254,145.23914 11.3367637,146.084017 11.567002,146.926427 C16.7158509,136.591791 33.1605258,135.638375 43.4749448,137.293594 C45.9085252,137.683348 46.9503857,134.118829 44.5000841,133.725376 C32.5675657,131.811143 14.2076682,133.072908 8.23690714,145.060297 C7.77900302,145.977945 7.97194015,147.0399 8.92890832,147.589995 C21.397792,154.767134 35.9503967,144.343693 45.35158,136.817503 C47.2642301,135.286857 44.5193778,132.684388 42.623449,134.201467" id="Fill-63" fill="#FF8904"></path>
                        <path d="M63.469881,140.741246 C71.6375999,140.741246 90.4861819,131.92997 79.8053187,123.74807 C75.4073163,120.601185 67.8678835,121.859939 64.7264532,126.265577 C60.9567368,131.300593 64.7264532,135.706231 63.469881,142" id="Fill-65" fill="#FF8904"></path>
                        <path d="M63.4226511,142.740779 C70.8477439,142.559557 90.0761826,135.572285 83.7387054,124.954184 C80.3078527,119.208669 72.6200142,119.027447 67.2223583,121.541588 C64.1287802,122.981158 61.9586016,126.104053 61.2398405,129.390304 C60.3619161,133.405274 62.2238737,137.51213 61.5960631,141.594739 C61.2246821,144.00806 64.8753317,145.045622 65.249239,142.610605 C66.0349498,137.503197 63.1624317,131.119574 66.5920212,126.78938 C70.0329795,122.443872 77.9721949,122.708048 80.813133,127.468326 C82.8708867,130.914104 76.9818457,134.333081 74.7409279,135.576114 C71.3643929,137.449596 67.2968871,138.817697 63.4226511,138.912137 C60.9834108,138.972119 60.9770948,142.800761 63.4226511,142.740779" id="Fill-67" fill="#FF8904"></path>
                        <path d="M52.7218855,134.71357 C57.7167623,127.638206 61.4629198,103.196038 45.2295705,110.271402 C33.3667383,115.417122 50.2244472,130.211065 50.2244472,136" id="Fill-69" fill="#FF8904"></path>
                        <path d="M54.2936303,135.891215 C59.0361129,128.998411 63.2808422,109.372825 50.7351972,108.054604 C45.0537709,107.45621 38.0538013,111.840263 39.1058707,118.050797 C39.6589299,121.319433 41.3595869,124.216263 43.0954386,126.995417 C44.7294771,129.609325 48.002582,133.000644 48.266542,136.19542 C48.4638836,138.591501 52.2372556,138.611531 52.0374002,136.19542 C51.4001251,128.477633 34.5670145,115.53078 48.692649,111.974213 C59.5024423,109.251393 53.9102597,129.820891 51.0381228,133.995882 C49.6592456,136.000128 52.9285796,137.875431 54.2936303,135.891215" id="Fill-71" fill="#FF8904"></path>
                        <g id="Group-75" transform="translate(95.000000, 25.000000)">
                            <mask id="mask-4" fill="white">
                                <use xlink:href="#path-3"></use>
                            </mask>
                            <g id="Clip-74"></g>
                            <path d="M14.0125622,216.882867 C13.9096703,197.249457 12.4882378,177.572809 11.8835892,157.944486 C11.2725892,138.108879 10.397373,118.138474 7.10229189,98.5355838 C5.5894,89.5333873 2.29431892,81.8397457 5.55764324,72.7815954 C8.4691027,64.7051792 13.9744541,57.6168555 18.0914,50.1444855 C26.8676973,34.2116532 38.6761297,19.9917688 45.7007243,3.11153757 C46.6458054,0.841595376 42.9569405,-0.137595376 42.0271027,2.09928324 C34.7649676,19.5428671 22.5030486,34.8869133 13.1094,51.2203237 C9.20077838,58.0187052 4.87423784,64.4813642 1.88275135,71.7680694 C-0.929627027,78.6198613 0.148832432,85.1321156 1.75953514,92.1288786 C6.33758919,112.028069 7.19121081,132.687723 7.91145405,153.035815 C8.66345405,174.281711 10.0899676,195.628069 10.2017514,216.882867 C10.2144541,219.342289 14.0252649,219.344832 14.0125622,216.882867" id="Fill-73" fill="#FF8904" mask="url(#mask-4)"></path>
                        </g>
                        <path d="M63.3561272,177.901747 C95.4942189,186.417933 132.708082,176.199021 164,177.051022 C163.155095,188.120659 156.388247,199.191574 153.006091,210.262488 C152.159917,215.371945 151.313744,227.293584 146.239242,231.551038 C139.473662,237.512496 114.10115,237.512496 104.798319,239.215222 C93.803141,240.919226 82.8079631,243.473954 71.8140539,240.919226 C55.7443737,237.512496 54.0532958,227.293584 53.2071225,211.113213 C53.2071225,201.746302 50.6698714,179.60575 63.3561272,177.901747" id="Fill-76" fill="#0D6799"></path>
                        <path d="M164.606784,141.329054 C168.0721,144.5931 170.988699,148.416697 174.61282,151.508675 C176.51203,153.129533 179.267241,150.358049 177.351246,148.722742 C173.727125,145.629451 170.810527,141.807168 167.34521,138.543122 C165.51572,136.818497 162.770838,139.600489 164.606784,141.329054" id="Fill-78" fill="#FFFFFF"></path>
                        <path d="M175.836697,131.61993 C180.276968,134.750143 185.912504,135.577947 191.19347,135.993115 C193.611564,136.182979 193.592771,132.384446 191.19347,132.195848 C186.548977,131.830045 181.63511,131.090844 177.733585,128.341623 C175.740224,126.936634 173.864635,130.23013 175.836697,131.61993" id="Fill-80" fill="#FFFFFF"></path>
                        <path d="M163.037196,113.352528 C162.153701,117.08855 162.600852,120.875973 162.024013,124.635816 C161.659268,127.00656 165.564748,128.028324 165.932195,125.635014 C166.506332,121.891469 166.069988,118.052644 166.945378,114.351725 C167.504654,111.988503 163.597823,110.983037 163.037196,113.352528" id="Fill-82" fill="#FFFFFF"></path>
                        <path d="M142.938388,125.494562 C145.480036,126.834791 147.213034,128.934567 148.301601,131.608727 C148.688508,132.559736 149.524528,133.227331 150.596921,132.927543 C151.48768,132.680659 152.287621,131.557083 151.899469,130.604815 C150.445144,127.027512 148.268011,124.051044 144.82192,122.232162 C142.690817,121.108586 140.803553,124.368467 142.938388,125.494562" id="Fill-84" fill="#FFFFFF"></path>
                        <path d="M147.161812,138.406066 C147.655407,141.807121 146.619624,145.191591 147.161812,148.611782 C147.546714,151.044569 151.243563,150.008689 150.861219,147.595037 C150.326704,144.220773 151.356093,140.805685 150.861219,137.389322 C150.507007,134.953983 146.811436,135.992415 147.161812,138.406066" id="Fill-86" fill="#FFFFFF"></path>
                        <path d="M66.1853353,138.507376 C68.584232,136.347408 70.190024,133.441179 70.9415151,130.303438 C71.49473,127.988307 67.9551336,127.005607 67.4006947,129.32197 C66.7862834,131.889549 65.5525652,134.127098 63.5893865,135.895465 C61.8220361,137.487733 64.4265524,140.091024 66.1853353,138.507376" id="Fill-88" fill="#FFFFFF"></path>
                        <path d="M63.0335244,143.472086 C63.6101425,147.004125 64.1584022,150.532225 64.4467112,154.11022 C64.6499455,156.619412 68.1959101,156.64042 67.9914943,154.11022 C67.674827,150.181647 67.0852114,146.302969 66.4518768,142.425604 C66.0430452,139.928229 62.627056,140.989154 63.0335244,143.472086" id="Fill-90" fill="#FFFFFF"></path>
                        <path d="M40.7734468,155.673238 C43.1802509,154.039124 44.6900078,151.601646 46.1179861,149.070268 C47.4604116,146.687565 48.8078696,143.501498 51.6462125,142.828551 C54.017789,142.267761 53.0125425,138.494822 50.6422242,139.056915 C44.1225908,140.601043 43.8520927,148.91116 38.8686369,152.29546 C36.8417883,153.67135 38.7302425,157.059562 40.7734468,155.673238" id="Fill-92" fill="#FFFFFF"></path>
                        <path d="M48.1142445,120.263217 C49.4864783,124.05664 51.0111826,127.803155 52.0917338,131.681754 C52.7347613,133.992619 56.5717126,133.011242 55.9273594,130.697908 C54.8468081,126.819309 53.320778,123.07156 51.94987,119.279372 C51.1358106,117.028994 47.2935559,117.994323 48.1142445,120.263217" id="Fill-94" fill="#FFFFFF"></path>
                        <path d="M24.8334942,141.947437 C30.1831126,142.377845 34.6209942,140.062985 39.6463547,138.723799 C42.0204307,138.091441 41.0107808,134.439919 38.6316185,135.07354 C33.952133,136.319323 29.8143488,138.560976 24.8334942,138.160861 C22.3793076,137.963959 22.3983815,141.751798 24.8334942,141.947437" id="Fill-96" fill="#FFFFFF"></path>
                        <path d="M132.540125,47.2643937 C134.825496,49.6488028 136.65603,52.3645913 138.461709,55.131166 C139.78894,57.1638811 143.020025,55.259401 141.68161,53.2101805 C139.703192,50.1795179 137.678793,47.1818663 135.175945,44.5714589 C133.492052,42.8142587 130.857475,45.5097328 132.540125,47.2643937" id="Fill-98" fill="#FFFFFF"></path>
                        <path d="M144.302474,40.6821603 C150.988821,43.1505163 158.22473,41.4722305 165.135546,41.0551127 C167.613738,40.905441 167.629219,37.2237628 165.135546,37.3746614 C158.601426,37.7684696 151.646748,39.4651577 145.331937,37.1329784 C143.0021,36.2729796 142.002309,39.8332028 144.302474,40.6821603" id="Fill-100" fill="#FFFFFF"></path>
                        <path d="M140.94255,29.7879678 C146.065377,27.3153918 146.902862,21.2454047 149.689752,16.8542954 C151.028438,14.7424914 147.682366,12.8046309 146.35141,14.9035502 C144.012897,18.5911544 143.2437,24.3982934 138.991856,26.4508278 C136.747398,27.5344319 138.709688,30.8664181 140.94255,29.7879678" id="Fill-102" fill="#FFFFFF"></path>
                        <path d="M123.905021,22.6143624 C127.629734,24.9673223 129.904071,28.5796129 132.301871,32.1256229 C133.684668,34.1701233 137.063682,32.2569094 135.669189,30.1958389 C132.882802,26.0749724 130.192587,22.0407806 125.872647,19.3130806 C123.751666,17.9734484 121.798336,21.2849273 123.905021,22.6143624" id="Fill-104" fill="#FFFFFF"></path>
                        <path d="M116.268792,43.939723 C120.932423,45.8992675 125.831013,44.6819152 130.617839,43.939723 C133.041098,43.5640455 132.007275,39.7797816 129.604337,40.1528412 C125.457618,40.7968598 121.317249,41.8479715 117.282294,40.1528412 C115.005091,39.1972851 114.024611,42.9972568 116.268792,43.939723" id="Fill-106" fill="#FFFFFF"></path>
                    </g>
                </g>
            </g>
        </g>
    </g>
</svg>